<?xml version="1.0" encoding="iso-8859-1"?>
<!-- Generator: Adobe Illustrator 19.0.0, SVG Export Plug-In . SVG Version: 6.00 Build 0)  -->
<svg version="1.1" id="Capa_1" xmlns="http://www.w3.org/2000/svg" xmlns:xlink="http://www.w3.org/1999/xlink" x="0px" y="0px"
	 viewBox="0 0 512 512" style="enable-background:new 0 0 512 512;" xml:space="preserve">
<path style="fill:#415A6B;" d="M3.2,168.533C3.2,169.6,3.2,169.6,3.2,168.533C3.2,169.6,3.2,169.6,3.2,168.533L3.2,168.533z"/>
<path style="fill:#F3F3F3;" d="M371.2,33.067V252.8c0,18.133-14.933,33.067-33.067,33.067H192l-139.733,80l11.733-80H33.067
	C14.933,285.867,0,270.933,0,252.8V33.067C0,14.933,14.933,0,33.067,0h304C356.267,0,371.2,14.933,371.2,33.067z"/>
<g>
	<path style="fill:#F3705A;" d="M86.4,178.133C104.533,160,126.933,150.4,126.933,128c0-11.733-9.6-21.333-21.333-21.333
		c-8.533,0-16,5.333-19.2,11.733c-3.2-7.467-10.667-11.733-19.2-11.733c-11.733,0-21.333,9.6-21.333,21.333
		C44.8,151.467,69.333,161.067,86.4,178.133z"/>
	<path style="fill:#F3705A;" d="M185.6,178.133C203.733,160,226.133,150.4,226.133,128c0-11.733-9.6-21.333-21.333-21.333
		c-8.533,0-16,5.333-19.2,11.733c-3.2-7.467-10.667-11.733-19.2-11.733c-11.733,0-21.333,9.6-21.333,21.333
		C145.067,151.467,168.533,161.067,185.6,178.133z"/>
	<path style="fill:#F3705A;" d="M284.8,178.133C302.933,160,325.333,150.4,325.333,128c0-11.733-9.6-21.333-21.333-21.333
		c-8.533,0-16,5.333-19.2,11.733c-3.2-7.467-10.667-11.733-19.2-11.733c-11.733,0-21.333,9.6-21.333,21.333
		C244.267,151.467,268.8,161.067,284.8,178.133z"/>
	<path style="fill:#F3705A;" d="M195.2,227.2v187.733c0,16,12.8,28.8,28.8,28.8h123.733L467.2,512l-10.667-68.267H483.2
		c16,0,28.8-12.8,28.8-28.8V227.2c0-16-12.8-28.8-28.8-28.8H222.933C208,199.467,195.2,212.267,195.2,227.2z"/>
</g>
<path style="fill:#FFFFFF;" d="M353.067,387.2c33.067-33.067,74.667-51.2,74.667-90.667c0-22.4-18.133-39.467-39.467-39.467
	c-16,0-28.8,9.6-35.2,22.4c-6.4-12.8-20.267-22.4-35.2-22.4c-21.333,0-39.467,18.133-39.467,39.467
	C278.4,336,323.2,354.133,353.067,387.2z"/>
<g>
</g>
<g>
</g>
<g>
</g>
<g>
</g>
<g>
</g>
<g>
</g>
<g>
</g>
<g>
</g>
<g>
</g>
<g>
</g>
<g>
</g>
<g>
</g>
<g>
</g>
<g>
</g>
<g>
</g>
</svg>
